<svg xmlns="http://www.w3.org/2000/svg" width="170.668" height="208.214" viewBox="0 0 170.668 208.214">
  <g id="proteins" transform="translate(-18.774)">
    <g id="Group_4" data-name="Group 4">
      <g id="Group_3" data-name="Group 3">
        <path id="Path_29" data-name="Path 29" d="M161.533,40.96H46.681A27.937,27.937,0,0,0,18.774,68.867V171.794a36.461,36.461,0,0,0,36.42,36.42H153.02a36.464,36.464,0,0,0,36.422-36.42V68.867A27.939,27.939,0,0,0,161.533,40.96ZM182.613,171.8a29.626,29.626,0,0,1-29.594,29.594H55.194A29.626,29.626,0,0,1,25.6,171.8V68.869A21.105,21.105,0,0,1,46.681,47.788h114.85a21.1,21.1,0,0,1,21.082,21.081Z" fill="red"/>
      </g>
    </g>
    <g id="Group_6" data-name="Group 6">
      <g id="Group_5" data-name="Group 5">
        <path id="Path_30" data-name="Path 30" d="M141.653,27.308H66.56a3.414,3.414,0,0,0-3.413,3.413V44.374a3.414,3.414,0,0,0,3.413,3.413h75.093a3.414,3.414,0,0,0,3.413-3.413V30.722A3.414,3.414,0,0,0,141.653,27.308ZM138.24,40.962H69.973V34.135H138.24v6.827Z" fill="red"/>
      </g>
    </g>
    <g id="Group_8" data-name="Group 8">
      <g id="Group_7" data-name="Group 7">
        <path id="Path_31" data-name="Path 31" d="M160.261,0H47.951a8.708,8.708,0,0,0-8.7,8.7V25.436a8.708,8.708,0,0,0,8.7,8.7H160.262a8.708,8.708,0,0,0,8.7-8.7V8.7A8.709,8.709,0,0,0,160.261,0Zm1.874,25.438a1.874,1.874,0,0,1-1.872,1.872H47.952a1.874,1.874,0,0,1-1.872-1.872V8.7a1.874,1.874,0,0,1,1.872-1.872H160.263A1.874,1.874,0,0,1,162.135,8.7Z" fill="red"/>
      </g>
    </g>
    <g id="Group_10" data-name="Group 10">
      <g id="Group_9" data-name="Group 9">
        <path id="Path_32" data-name="Path 32" d="M186.027,71.682H22.187A3.414,3.414,0,0,0,18.774,75.1v95.573a3.414,3.414,0,0,0,3.413,3.413h163.84a3.414,3.414,0,0,0,3.413-3.413V75.1A3.414,3.414,0,0,0,186.027,71.682Zm-3.414,95.573H25.6V78.508H182.613Z" fill="red"/>
      </g>
    </g>
    <g id="Group_12" data-name="Group 12">
      <g id="Group_11" data-name="Group 11">
        <path id="Path_33" data-name="Path 33" d="M51.9,116.507a7.438,7.438,0,0,0-2.584-2.676,9.765,9.765,0,0,0-3.567-1.283,24.48,24.48,0,0,0-3.941-.321q-1.892,0-3.794.171t-3.49.469v26.146h5.169V129.92c.123.027.333.049.623.077s.584.043.887.056.589.017.867.017h.6a14.669,14.669,0,0,0,3.794-.49A9.3,9.3,0,0,0,49.733,128a8.079,8.079,0,0,0,2.3-2.809,9.24,9.24,0,0,0,.867-4.207A8.817,8.817,0,0,0,51.9,116.507ZM47,123.283a3.608,3.608,0,0,1-1.263,1.413,5.025,5.025,0,0,1-1.794.7,10.776,10.776,0,0,1-2.017.186H41.45c-.213,0-.433,0-.66-.017s-.44-.032-.64-.056a3.743,3.743,0,0,1-.454-.077v-8.564q.414-.075,1.094-.133c.454-.036.93-.056,1.434-.056a9.589,9.589,0,0,1,1.923.191,4.613,4.613,0,0,1,1.679.679,3.754,3.754,0,0,1,1.19,1.3,4.2,4.2,0,0,1,.451,2.057A5.2,5.2,0,0,1,47,123.283Z" fill="red"/>
      </g>
    </g>
    <g id="Group_14" data-name="Group 14">
      <g id="Group_13" data-name="Group 13">
        <path id="Path_34" data-name="Path 34" d="M69.919,128.944l-1.85-1.171a7.745,7.745,0,0,0,4.036-2.83,8.646,8.646,0,0,0,1.51-5.284,7.113,7.113,0,0,0-.85-3.64,6.244,6.244,0,0,0-2.263-2.284,9.94,9.94,0,0,0-3.207-1.171,19.68,19.68,0,0,0-3.64-.336c-.531,0-1.108.012-1.737.036s-1.277.063-1.944.113-1.333.12-2,.207-1.287.183-1.867.283h0v26.15h5.169V128.186l2.717.493,6,10.337h5.963Zm-6.455-4.267H61.278v-7.66a5.674,5.674,0,0,1,1.186-.15c.517-.026,1.039-.036,1.567-.036a4.455,4.455,0,0,1,3.094.959,3.428,3.428,0,0,1,1.056,2.661A3.835,3.835,0,0,1,66.9,123.7,5.508,5.508,0,0,1,63.464,124.677Z" fill="red"/>
      </g>
    </g>
    <g id="Group_16" data-name="Group 16">
      <g id="Group_15" data-name="Group 15">
        <path id="Path_35" data-name="Path 35" d="M98.48,120.187a12.235,12.235,0,0,0-2.077-4.34,9.308,9.308,0,0,0-3.507-2.79,11.639,11.639,0,0,0-4.943-.983q-5.394,0-8.3,3.567t-2.906,10.167a21.662,21.662,0,0,0,.677,5.623,12.4,12.4,0,0,0,2.057,4.34,9.117,9.117,0,0,0,3.49,2.79,11.715,11.715,0,0,0,4.98.98,10.1,10.1,0,0,0,8.281-3.564q2.926-3.567,2.927-10.17A21.61,21.61,0,0,0,98.48,120.187Zm-6.265,12.6a4.9,4.9,0,0,1-4.263,2.154,4.849,4.849,0,0,1-2.6-.679,5.284,5.284,0,0,1-1.794-1.886,9.5,9.5,0,0,1-1.036-2.886,18.553,18.553,0,0,1-.34-3.68q0-4.713,1.51-6.927a5.3,5.3,0,0,1,6.939-1.507,5.171,5.171,0,0,1,1.773,1.944,9.9,9.9,0,0,1,1,2.9,18.991,18.991,0,0,1,.323,3.584Q93.725,130.634,92.215,132.784Z" fill="red"/>
      </g>
    </g>
    <g id="Group_18" data-name="Group 18">
      <g id="Group_17" data-name="Group 17">
        <path id="Path_36" data-name="Path 36" d="M99.538,112.6v4.6h7.733v21.806h5.169V117.207h7.7v-4.6Z" fill="red"/>
      </g>
    </g>
    <g id="Group_20" data-name="Group 20">
      <g id="Group_19" data-name="Group 19">
        <path id="Path_37" data-name="Path 37" d="M127.983,134.41v-6.449h9.544v-4.6h-9.544v-6.151H138.47v-4.6H122.813v26.409H138.66v-4.6Z" fill="red"/>
      </g>
    </g>
    <g id="Group_22" data-name="Group 22">
      <g id="Group_21" data-name="Group 21">
        <rect id="Rectangle_1" data-name="Rectangle 1" width="5.166" height="26.411" transform="translate(143.037 112.604)" fill="red"/>
      </g>
    </g>
    <g id="Group_24" data-name="Group 24">
      <g id="Group_23" data-name="Group 23">
        <path id="Path_38" data-name="Path 38" d="M168.614,112.6v13.884l.6,4.036h-.19l-2-4.036-10-14.073h-3.773v26.6h4.906V125.244l-.6-4.151h.189l2.077,4.151,9.917,13.959h3.774V112.6Z" fill="red"/>
      </g>
    </g>
    <g id="Group_26" data-name="Group 26">
      <g id="Group_25" data-name="Group 25">
        <path id="Path_39" data-name="Path 39" d="M66.56,0a3.414,3.414,0,0,0-3.413,3.413V17.068a3.413,3.413,0,0,0,6.826,0V3.415A3.414,3.414,0,0,0,66.56,0Z" fill="red"/>
      </g>
    </g>
    <g id="Group_28" data-name="Group 28">
      <g id="Group_27" data-name="Group 27">
        <path id="Path_40" data-name="Path 40" d="M90.453,0A3.414,3.414,0,0,0,87.04,3.415V17.068a3.413,3.413,0,0,0,6.826,0V3.415A3.413,3.413,0,0,0,90.453,0Z" fill="red"/>
      </g>
    </g>
    <g id="Group_30" data-name="Group 30">
      <g id="Group_29" data-name="Group 29">
        <path id="Path_41" data-name="Path 41" d="M141.653,0a3.414,3.414,0,0,0-3.413,3.413V17.068a3.413,3.413,0,1,0,6.826,0V3.415A3.413,3.413,0,0,0,141.653,0Z" fill="red"/>
      </g>
    </g>
    <g id="Group_32" data-name="Group 32">
      <g id="Group_31" data-name="Group 31">
        <path id="Path_42" data-name="Path 42" d="M117.76,0a3.414,3.414,0,0,0-3.413,3.413V17.068a3.413,3.413,0,0,0,6.826,0V3.415A3.414,3.414,0,0,0,117.76,0Z" fill="red"/>
      </g>
    </g>
  </g>
</svg>
