<svg xmlns="http://www.w3.org/2000/svg" width="164.681" height="142.023" viewBox="0 0 164.681 142.023">
  <g id="gymnast-control-of-heart-beats" transform="translate(0 -11.329)">
    <path id="Path_12" data-name="Path 12" d="M140.635,17.1A46.549,46.549,0,0,0,82.349,28.16,46.523,46.523,0,0,0,0,57.866a45.823,45.823,0,0,0,2.3,14.34,42.659,42.659,0,0,0,3.118,8.787H35.46L43,68.37a6.237,6.237,0,0,1,10.583-.2L64.46,84.943,77.84,48.8a6.235,6.235,0,0,1,5.837-4.074h.012a6.241,6.241,0,0,1,5.846,4.062l11.989,32.206h20.618a6.234,6.234,0,1,1,0,12.467H97.2A6.268,6.268,0,0,1,91.349,89.4L83.716,68.887l-11.849,32.05a6.241,6.241,0,0,1-5.155,4.031,6.651,6.651,0,0,1-.682.036,6.271,6.271,0,0,1-5.237-2.837l-12.2-18.806-4.226,7.066a6.264,6.264,0,0,1-5.358,3.045h-26c22.262,30.287,69.355,59.88,69.355,59.88s72.047-45.266,80.029-81.146a46.458,46.458,0,0,0-21.756-55.1Z" fill="red"/>
  </g>
</svg>
