<svg xmlns="http://www.w3.org/2000/svg" width="31.559" height="29.704" viewBox="0 0 31.559 29.704">
  <g id="healthy-lifestyle-logo" transform="translate(0 -0.927)">
    <g id="Group_2" data-name="Group 2">
      <path id="Path_13" data-name="Path 13" d="M16.646,16.945a2.2,2.2,0,0,0,.7-2.995,2.206,2.206,0,0,0-2.771-1.344,2.206,2.206,0,0,0-.7,3A2.2,2.2,0,0,0,16.646,16.945Z"/>
      <path id="Path_14" data-name="Path 14" d="M19.52,9.8c.922,5.771-3.185,10.1-3.185,10.1s-3.386-5.729-9.08-7.458c11.076,8.1,4.772,18.2,4.772,18.2h3.206S22.686,17.77,19.52,9.8Z"/>
      <path id="Path_15" data-name="Path 15" d="M13.269,10.455c-.062-.092-.125-.19-.188-.3a4.818,4.818,0,0,1-.427-.976,5.069,5.069,0,0,1,.631.857c.061.107.114.212.163.312a1.731,1.731,0,0,0-.134-1.144,1.846,1.846,0,0,0-1.067-.733,1.847,1.847,0,0,0,.1,1.292A1.72,1.72,0,0,0,13.269,10.455Z"/>
      <path id="Path_16" data-name="Path 16" d="M20.622,14.7a1.727,1.727,0,0,0,1.057.454,1.841,1.841,0,0,0,1.168-.559,1.839,1.839,0,0,0-1.168-.558,1.727,1.727,0,0,0-1.057.454c.111-.008.227-.014.352-.014a5,5,0,0,1,1.061.116,4.888,4.888,0,0,1-1.061.117A3.079,3.079,0,0,1,20.622,14.7Z"/>
      <path id="Path_17" data-name="Path 17" d="M18.276,10.04a4.87,4.87,0,0,1,.631-.859,4.846,4.846,0,0,1-.428.978c-.062.106-.125.206-.189.3a1.718,1.718,0,0,0,.922-.688,1.855,1.855,0,0,0,.1-1.294,1.859,1.859,0,0,0-1.068.734,1.724,1.724,0,0,0-.135,1.144A3.373,3.373,0,0,1,18.276,10.04Z"/>
      <path id="Path_18" data-name="Path 18" d="M15.519,6.994A10.893,10.893,0,0,1,15.78,4.64a10.877,10.877,0,0,1,.262,2.354c0,.275-.013.535-.033.781A3.829,3.829,0,0,0,17.02,5.423a4.106,4.106,0,0,0-1.24-2.6,4.106,4.106,0,0,0-1.24,2.6,3.837,3.837,0,0,0,1.01,2.352C15.532,7.529,15.519,7.27,15.519,6.994Z"/>
      <path id="Path_19" data-name="Path 19" d="M7.217,11.084a3.831,3.831,0,0,0,2.542.3c-.222-.1-.455-.226-.692-.362a10.861,10.861,0,0,1-1.908-1.4,10.869,10.869,0,0,1,2.169.95c.238.138.457.278.661.419A3.81,3.81,0,0,0,8.458,8.937a4.1,4.1,0,0,0-2.87-.227A4.1,4.1,0,0,0,7.217,11.084Z"/>
      <path id="Path_20" data-name="Path 20" d="M24.342,18.107a3.835,3.835,0,0,0-2.541-.3c.223.1.455.227.693.363a10.968,10.968,0,0,1,1.908,1.4,10.848,10.848,0,0,1-2.17-.949c-.238-.139-.457-.279-.66-.42A3.814,3.814,0,0,0,23.1,20.253a4.1,4.1,0,0,0,2.871.227A4.108,4.108,0,0,0,24.342,18.107Z"/>
      <path id="Path_21" data-name="Path 21" d="M9.987,18.2c-.2.139-.422.279-.66.418a11.048,11.048,0,0,1-2.17.951,10.867,10.867,0,0,1,1.908-1.4c.239-.139.471-.256.693-.363a3.813,3.813,0,0,0-2.542.3,4.107,4.107,0,0,0-1.631,2.373,4.111,4.111,0,0,0,2.871-.225A3.823,3.823,0,0,0,9.987,18.2Z"/>
      <path id="Path_22" data-name="Path 22" d="M21.573,10.985c.2-.139.422-.279.662-.417a10.849,10.849,0,0,1,2.168-.95,10.814,10.814,0,0,1-1.908,1.4c-.238.138-.471.258-.691.362a3.8,3.8,0,0,0,2.539-.3,4.1,4.1,0,0,0,1.631-2.374,4.1,4.1,0,0,0-2.869.227A3.806,3.806,0,0,0,21.573,10.985Z"/>
      <path id="Path_23" data-name="Path 23" d="M10.941,6.831c-.186-.273-.375-.567-.56-.887A14.546,14.546,0,0,1,9.106,3.036,14.53,14.53,0,0,1,10.987,5.6c.185.318.344.629.486.928a5.115,5.115,0,0,0-.4-3.406A5.507,5.507,0,0,0,7.89.931a5.508,5.508,0,0,0,.3,3.848A5.133,5.133,0,0,0,10.941,6.831Z"/>
      <path id="Path_24" data-name="Path 24" d="M20.62,22.361c.186.273.377.566.561.885a14.626,14.626,0,0,1,1.275,2.91A14.656,14.656,0,0,1,20.573,23.6c-.184-.32-.344-.631-.486-.928a5.136,5.136,0,0,0,.4,3.4,5.519,5.519,0,0,0,3.182,2.188,5.5,5.5,0,0,0-.3-3.85A5.135,5.135,0,0,0,20.62,22.361Z"/>
      <path id="Path_25" data-name="Path 25" d="M5.588,14.947a14.537,14.537,0,0,1-3.156-.352,14.537,14.537,0,0,1,3.156-.352c.37,0,.719.02,1.048.044a5.124,5.124,0,0,0-3.153-1.356A5.51,5.51,0,0,0,0,14.6a5.5,5.5,0,0,0,3.483,1.663A5.129,5.129,0,0,0,6.635,14.9C6.306,14.929,5.956,14.947,5.588,14.947Z"/>
      <path id="Path_26" data-name="Path 26" d="M28.077,12.935a5.117,5.117,0,0,0-3.152,1.354c.33-.025.68-.044,1.047-.043a14.564,14.564,0,0,1,3.156.351,14.518,14.518,0,0,1-3.154.352c-.369,0-.719-.019-1.049-.043a5.131,5.131,0,0,0,3.152,1.354A5.5,5.5,0,0,0,31.559,14.6,5.493,5.493,0,0,0,28.077,12.935Z"/>
      <path id="Path_27" data-name="Path 27" d="M10.988,23.6a14.624,14.624,0,0,1-1.882,2.559,14.546,14.546,0,0,1,1.274-2.91c.186-.318.375-.611.562-.887a5.132,5.132,0,0,0-2.75,2.053,5.507,5.507,0,0,0-.3,3.85,5.509,5.509,0,0,0,3.183-2.186,5.119,5.119,0,0,0,.4-3.406C11.33,22.967,11.171,23.275,10.988,23.6Z"/>
      <path id="Path_28" data-name="Path 28" d="M20.573,5.593a14.559,14.559,0,0,1,1.881-2.558,14.5,14.5,0,0,1-1.275,2.908c-.184.317-.373.613-.559.886a5.124,5.124,0,0,0,2.748-2.051,5.51,5.51,0,0,0,.3-3.851,5.515,5.515,0,0,0-3.182,2.187,5.108,5.108,0,0,0-.4,3.406C20.229,6.225,20.387,5.914,20.573,5.593Z"/>
    </g>
  </g>
</svg>
