<svg xmlns="http://www.w3.org/2000/svg" width="509.679" height="512" viewBox="0 0 509.679 512">
  <g id="gym_1_" data-name="gym (1)" transform="translate(-0.5 0)">
    <path id="Path_1" data-name="Path 1" d="M193.863,252.078V239.594a7.5,7.5,0,0,0-15,0v12.484a7.5,7.5,0,0,0,15,0Zm0,0" fill="red"/>
    <path id="Path_2" data-name="Path 2" d="M331.816,252.078V239.594a7.5,7.5,0,1,0-15,0v12.484a7.5,7.5,0,0,0,15,0Zm0,0" fill="red"/>
    <path id="Path_3" data-name="Path 3" d="M255.34,266.242a30.012,30.012,0,0,0,22.672-10.1,7.5,7.5,0,0,0-11.3-9.871,15.509,15.509,0,0,1-22.754,0,7.5,7.5,0,1,0-11.293,9.871,30.012,30.012,0,0,0,22.672,10.1Zm0,0" fill="red"/>
    <path id="Path_4" data-name="Path 4" d="M192.7,102.426c13.484,0,24.035-6.254,24.035-23.059V69.11a4.513,4.513,0,0,0-4.594-4.785H195.722c-2.93,0-4.59,3.027-4.59,5.859,0,3.027,1.66,5.863,4.59,5.863h5.766v3.32c0,6.645-3.324,9.77-8.793,9.77s-8.7-3.125-8.7-9.77V53.481c0-6.645,3.227-9.77,8.793-9.77,8.3,0,8.6,5.273,8.7,8.793s3.516,4.59,7.621,4.59c5.176,0,7.617-1.367,7.617-7.23,0-12.406-10.551-19.437-24.52-19.437-12.8,0-23.445,6.25-23.445,23.055V79.367c0,16.8,10.453,23.059,23.934,23.059Zm0,0" fill="red"/>
    <path id="Path_5" data-name="Path 5" d="M240.176,71.262a2.562,2.562,0,0,1,.391,1.367v24.52c0,3.129,3.809,4.691,7.617,4.691s7.621-1.562,7.621-4.691V72.629a2.531,2.531,0,0,1,.391-1.371L276.321,37.75a2.29,2.29,0,0,0,.2-1.074c0-3.617-6.152-6.254-10.355-6.254-2.441,0-3.418.977-4.395,2.836L248.184,58.363,234.508,33.258c-1.074-1.859-1.953-2.836-4.395-2.836-4.2,0-10.355,2.637-10.355,6.254a2.29,2.29,0,0,0,.2,1.074Zm0,0" fill="red"/>
    <path id="Path_6" data-name="Path 6" d="M289.9,101.84c3.809,0,7.621-1.566,7.621-4.691V59.535l9.281,17a5.008,5.008,0,0,0,4.785,2.832,5.6,5.6,0,0,0,5.078-2.832l9.379-16.02V97.149c0,3.129,3.813,4.691,7.621,4.691s7.621-1.562,7.621-4.691V38.043c0-5.566-3.711-7.617-7.621-7.617-5.473,0-7.812.582-11.82,7.617L311.781,55.629,301.718,38.043c-4-7.031-6.352-7.617-11.82-7.617-3.809,0-7.621,2.051-7.621,7.617V97.149C282.277,100.274,286.089,101.84,289.9,101.84Zm0,0" fill="red"/>
    <path id="Path_7" data-name="Path 7" d="M210.3,395.973a22.182,22.182,0,1,0,22.18,22.184A22.211,22.211,0,0,0,210.3,395.973Zm0,29.363a7.182,7.182,0,1,1,7.18-7.18A7.191,7.191,0,0,1,210.3,425.336Zm0,0" fill="red"/>
    <path id="Path_8" data-name="Path 8" d="M300.379,440.336a22.182,22.182,0,1,0-22.184-22.18A22.2,22.2,0,0,0,300.379,440.336Zm0-29.363a7.182,7.182,0,1,1-7.184,7.184A7.189,7.189,0,0,1,300.379,410.973Zm0,0" fill="red"/>
    <path id="Path_9" data-name="Path 9" d="M458.531,504.5V455.359a7.5,7.5,0,0,0-15,0V497H384.269V348.031A34.209,34.209,0,0,0,350.1,313.859H160.581a34.209,34.209,0,0,0-34.172,34.172V497H67.148V285.359a7.5,7.5,0,0,0-15,0V504.5a7.5,7.5,0,0,0,7.5,7.5H451.031a7.5,7.5,0,0,0,7.5-7.5ZM369.269,348.031V497H262.839V328.859H350.1a19.2,19.2,0,0,1,19.172,19.172Zm-227.859,0a19.2,19.2,0,0,1,19.172-19.172H247.84V497H141.41Zm0,0" fill="red"/>
    <path id="Path_10" data-name="Path 10" d="M458.531,204.684a20.844,20.844,0,0,0,13.328-19.406v-7.449h17.219a21.123,21.123,0,0,0,21.1-21.1v-21.1a21.123,21.123,0,0,0-21.1-21.1H471.859V107.09a20.852,20.852,0,0,0-20.828-20.828H433.89a20.82,20.82,0,0,0-5.832.844,20.845,20.845,0,0,0-20.824-20.75H390.094a20.786,20.786,0,0,0-5.824.844V26a26.032,26.032,0,0,0-26-26H152.41a26.031,26.031,0,0,0-26,26V67.2a20.813,20.813,0,0,0-5.828-.844H103.442A20.851,20.851,0,0,0,82.618,87.11a20.68,20.68,0,0,0-5.832-.848H59.649A20.852,20.852,0,0,0,38.821,107.09v7.445H21.6a21.123,21.123,0,0,0-21.1,21.1v21.094a21.123,21.123,0,0,0,21.1,21.1H38.821v7.445a20.84,20.84,0,0,0,13.328,19.406v50.68a7.5,7.5,0,1,0,15,0V206.106h9.641c.5,0,5.828-.316,5.824-.832a21.114,21.114,0,0,0,20.828,20.738h17.141a21.1,21.1,0,0,0,20.828-20.828V177.829H369.269v27.355a21.034,21.034,0,0,0,19.414,20.777c.469.031,18.551.047,18.551.047,10.625.012,21.523-9.57,20.828-20.734.039.621,5.363.828,5.828.828h9.641V425.36a7.5,7.5,0,0,0,15,0Zm30.547-75.148a6.107,6.107,0,0,1,6.1,6.1v21.1a6.107,6.107,0,0,1-6.1,6.1H471.859V129.536ZM390.1,81.356h17.141a5.832,5.832,0,0,1,5.824,5.828v118a5.916,5.916,0,0,1-5.824,5.824H390.1a5.917,5.917,0,0,1-5.828-5.824v-118a5.833,5.833,0,0,1,5.828-5.828ZM141.409,26a11.015,11.015,0,0,1,11-11H358.264a11.018,11.018,0,0,1,11,11v88.531H141.409Zm-43.8,61.18a5.836,5.836,0,0,1,5.828-5.828h17.141a5.833,5.833,0,0,1,5.828,5.828v118a5.889,5.889,0,0,1-5.828,5.828H103.441a5.894,5.894,0,0,1-5.828-5.828ZM21.6,162.829a6.1,6.1,0,0,1-6.1-6.1v-21.1a6.1,6.1,0,0,1,6.1-6.1H38.82v33.293ZM59.648,191.1a5.832,5.832,0,0,1-5.828-5.824V107.09a5.833,5.833,0,0,1,5.828-5.828H76.788a5.832,5.832,0,0,1,5.824,5.828v78.188a5.832,5.832,0,0,1-5.824,5.824Zm81.762-28.273V129.535H369.268v33.293ZM433.889,191.1a5.832,5.832,0,0,1-5.828-5.824V107.09a5.833,5.833,0,0,1,5.828-5.828H451.03a5.836,5.836,0,0,1,5.828,5.828v78.188a5.835,5.835,0,0,1-5.828,5.824Zm0,0" fill="red"/>
  </g>
</svg>
