<svg xmlns="http://www.w3.org/2000/svg" width="512.001" height="439.617" viewBox="0 0 512.001 439.617">
  <g id="sport" transform="translate(0.001 0)">
    <path id="Path_43" data-name="Path 43" d="M512,156.359v-35.57a17.451,17.451,0,0,0-17.43-17.43A23.026,23.026,0,0,1,471.527,80.32V17.687A17.706,17.706,0,0,0,453.84,0H432.508A17.709,17.709,0,0,0,414.82,17.687v36.66c0,22.742-18.137,41.547-40.426,41.922A41.124,41.124,0,0,1,332.57,55.148V17.687A17.71,17.71,0,0,0,314.879,0H293.551a17.712,17.712,0,0,0-17.691,17.688v22.6a7.5,7.5,0,1,0,15,0v-22.6A2.693,2.693,0,0,1,293.551,15h21.328a2.693,2.693,0,0,1,2.691,2.688V55.148a56.13,56.13,0,0,0,57.074,56.121c30.426-.516,55.176-26.051,55.176-56.922V17.687A2.692,2.692,0,0,1,432.508,15H453.84a2.692,2.692,0,0,1,2.688,2.688V80.32a38.03,38.03,0,0,0,38.043,38.039,2.432,2.432,0,0,1,2.43,2.43v30.988l-123.309,59.16-123.3-59.156V120.789a2.434,2.434,0,0,1,2.43-2.43A38.08,38.08,0,0,0,290.859,80.32V70.289a7.5,7.5,0,0,0-15,0V80.32a23.066,23.066,0,0,1-23.039,23.039,17.431,17.431,0,0,0-17.43,17.43v35.453q-.006.252,0,.5V281.367l-38.57,23.117a36.191,36.191,0,0,0-17.961-4.8h-44.75V170.124h44.75a36.051,36.051,0,1,0,0-72.1H171V89.831A29.469,29.469,0,0,0,141.566,60.4h-7.457V45.7a15.517,15.517,0,0,0-15.5-15.5H96.3A15.517,15.517,0,0,0,80.8,45.7V60.4H73.343A29.469,29.469,0,0,0,43.906,89.831v8.191H36.05a36.173,36.173,0,0,0-9.7,1.32,7.5,7.5,0,1,0,4.031,14.449,21.062,21.062,0,0,1,5.668-.77H178.859a21.049,21.049,0,1,1,0,42.1H36.05A21.071,21.071,0,0,1,15,134.073a21.576,21.576,0,0,1,.3-3.555,7.5,7.5,0,1,0-14.789-2.5A36.55,36.55,0,0,0,0,134.073,36.091,36.091,0,0,0,36.05,170.124H80.8V299.687H36.05a36.051,36.051,0,1,0,0,72.1h7.859v8.188a29.469,29.469,0,0,0,29.43,29.441H80.8v14.7a15.517,15.517,0,0,0,15.5,15.5h22.309a15.517,15.517,0,0,0,15.5-15.5v-14.7h.3a52.573,52.573,0,0,0,5.121,5.785,51.9,51.9,0,0,0,36.457,14.848H446.379a28.672,28.672,0,0,0,28.637-28.641V356.988h4A33.018,33.018,0,0,0,512,324.007V156.359ZM95.8,45.7a.5.5,0,0,1,.5-.5H118.61a.5.5,0,0,1,.5.5V60.4H95.8ZM58.906,98.023V89.832A14.45,14.45,0,0,1,73.344,75.4h68.223A14.45,14.45,0,0,1,156,89.832v8.191ZM314.523,264.429a8.016,8.016,0,0,1,7.512,5.266,60.92,60.92,0,0,0,114.949-1.137,6.093,6.093,0,0,1,5.77-4.129h4.66a12.615,12.615,0,0,1,12.6,12.6v94.484H356.18l-24.6-35.25a7.5,7.5,0,0,0-12.3,8.586l18.609,26.664h-18l-46.328-66.395,12.691-7.609,15.863,22.738a7.5,7.5,0,0,0,12.3-8.582l-15.965-22.883a26.561,26.561,0,0,0,6.707-17.57v-6.785Zm-30.4,107.086L248.34,320.238l12.324-7.387L301.6,371.515Zm-36.293,0L222.75,335.578l12.691-7.605,30.387,43.547h-18Zm-69.461-38.484a15.888,15.888,0,0,0,1.309,2,25.552,25.552,0,0,0,30.02,8.043l19.844,28.438H139.324a37.423,37.423,0,0,1,17.531-25.586Zm111.8-67v5.188a11.471,11.471,0,0,1-5.43,9.715c-.133.078-.266.156-.395.242l-25.18,15.09q-.193.111-.387.234l-24.957,14.957c-.047.027-.1.059-.145.09L205.36,328.515a10.549,10.549,0,0,1-13.793-2.621.6.6,0,0,1,.141-.855l8.59-5.148c.1-.055.2-.117.3-.18l89.234-53.488c.113-.066.223-.129.336-.191ZM95.8,170.124H119.11V299.688H95.8ZM58.911,379.979v-8.191h42.371a7.5,7.5,0,1,0,0-15H36.051a21.051,21.051,0,1,1,0-42.1H178.86c.3,0,.605.008.906.02l-30.621,18.355a52.241,52.241,0,0,0-23.355,59.156c.016.059.035.117.051.176l.035.117c.184.641.383,1.273.594,1.906H73.341a14.45,14.45,0,0,1-14.43-14.437Zm60.2,44.137a.5.5,0,0,1-.5.5H96.3a.5.5,0,0,1-.5-.5v-14.7H119.11Zm340.906-22.707a13.654,13.654,0,0,1-13.641,13.641c-173,0-270.586.008-271.383-.012a37.279,37.279,0,0,1-35.2-28.523H243.731c.066,0,.129,0,.2,0s.133,0,.2,0H280.02c.066,0,.129,0,.2,0s.133,0,.2,0H315.79c.066,0,.133,0,.2,0s.133,0,.2,0h35.895c.066,0,.129,0,.2,0s.133,0,.2,0H460.016Zm19-59.422h-4V277.03a27.634,27.634,0,0,0-27.6-27.6h-4.66a21.1,21.1,0,0,0-19.973,14.3,45.924,45.924,0,0,1-86.648.859,23.051,23.051,0,0,0-21.613-15.156c-16.719.43-23.09-1.641-32.4,3.93l-31.73,19.016V168.417l120.059,57.6a7.5,7.5,0,0,0,6.488,0L497,168.413V324.007a18,18,0,0,1-17.977,17.98Zm0,0" fill="red"/>
    <path id="Path_44" data-name="Path 44" d="M365.871,132.145h-5.039a7.5,7.5,0,0,0,0,15h1.586v25.941H361.5a7.5,7.5,0,0,0,0,15h16.828a7.5,7.5,0,0,0,0-15h-.914V143.692a11.56,11.56,0,0,0-11.547-11.547Zm0,0" fill="red"/>
  </g>
</svg>
