<svg xmlns="http://www.w3.org/2000/svg" width="480" height="384" viewBox="0 0 480 384">
  <g id="gym" transform="translate(0 -48)">
    <g id="Group_1" data-name="Group 1">
      <path id="Path_11" data-name="Path 11" d="M456,112H440V72a24.029,24.029,0,0,0-24-24H384a24.029,24.029,0,0,0-24,24v64H341.168l-1.76-4.48A55.683,55.683,0,0,0,287.288,96h-.76A23.779,23.779,0,0,0,248,86.24a23.633,23.633,0,0,0-32,0,23.633,23.633,0,0,0-32,0A23.9,23.9,0,0,0,144,104v32H120V72A24.029,24.029,0,0,0,96,48H64A24.029,24.029,0,0,0,40,72v40H24A24.029,24.029,0,0,0,0,136v80a24.029,24.029,0,0,0,24,24H40v40a24.029,24.029,0,0,0,24,24H96a24.029,24.029,0,0,0,24-24V216h18.144l6.232,19.72a8.034,8.034,0,0,0,1.3,2.488l21.352,27.624L153.344,409.56a20.48,20.48,0,0,0,20.4,22.44H282.192a20.5,20.5,0,0,0,20.392-22.544L288.608,269.688a4.473,4.473,0,0,1,1.544-3.856l43.9-37.624A28.325,28.325,0,0,0,342.224,216H360v64a24.029,24.029,0,0,0,24,24h32a24.029,24.029,0,0,0,24-24V240h16a24.029,24.029,0,0,0,24-24V136A24.029,24.029,0,0,0,456,112ZM40,224H24a8.008,8.008,0,0,1-8-8V136a8.008,8.008,0,0,1,8-8H40Zm64-80V280a8.008,8.008,0,0,1-8,8H64a8.008,8.008,0,0,1-8-8V72a8.008,8.008,0,0,1,8-8H96a8.008,8.008,0,0,1,8,8Zm152-40a8,8,0,0,1,16,0v47.144a9.258,9.258,0,0,1-3.648,7.384,8.175,8.175,0,0,1-.7.472,6.323,6.323,0,0,1-1.352.528,7.417,7.417,0,0,1-1.584.32,11.211,11.211,0,0,1-3.264-.368,7.831,7.831,0,0,1-1.808-.952,8.173,8.173,0,0,1-1.024-.688A7.883,7.883,0,0,1,256,152V104Zm-32,0a8,8,0,0,1,16,0v48a8,8,0,0,1-16,0Zm-32,0a8,8,0,0,1,16,0v48a8,8,0,0,1-16,0Zm-32,40V104a8,8,0,0,1,16,0v48a5.765,5.765,0,0,1-1.256,4.04,8.129,8.129,0,0,1-1.376,1.808,7.94,7.94,0,0,1-1.008.68,7.859,7.859,0,0,1-1.832.96,7.941,7.941,0,0,1-1.312.264,8.282,8.282,0,0,1-1.944.1,7.272,7.272,0,0,1-1.568-.32,6.939,6.939,0,0,1-1.368-.536,5.661,5.661,0,0,1-.68-.464A9.281,9.281,0,0,1,160,151.136Zm-40,56V152h24a23.917,23.917,0,0,0,11.848,20.576c.432.264.88.48,1.328.72a22.567,22.567,0,0,0,2.184,1.024,21.9,21.9,0,0,0,2.608.808c.528.136,1.04.312,1.584.416.168.032.312.1.48.128.56.1,1.112.04,1.672.1.768.072,1.512.232,2.3.232.232,0,.448-.064.672-.072.736-.024,1.448-.136,2.168-.216a23.355,23.355,0,0,0,2.824-.464c.688-.168,1.344-.4,2.016-.624a24.856,24.856,0,0,0,2.624-1.04c.648-.312,1.272-.664,1.9-1.032a24.771,24.771,0,0,0,2.3-1.56c.336-.256.72-.432,1.04-.7.16-.136.312-.264.464-.4.464.416,1.008.744,1.5,1.12s.976.776,1.5,1.12a24.975,24.975,0,0,0,2.368,1.288c.536.264,1.04.568,1.592.792a23.679,23.679,0,0,0,2.888.9c.5.128.96.32,1.472.424a23.279,23.279,0,0,0,9.328,0c.52-.1.992-.3,1.5-.432a24.752,24.752,0,0,0,2.864-.888c.568-.232,1.08-.536,1.624-.808a24.451,24.451,0,0,0,2.344-1.272c.536-.344,1.016-.744,1.512-1.128s1.032-.7,1.5-1.12c.464.416,1,.736,1.5,1.12s.984.792,1.52,1.136a24.458,24.458,0,0,0,2.344,1.272c.544.272,1.056.576,1.624.808a22.865,22.865,0,0,0,2.864.888c.5.136.984.328,1.5.432A24.7,24.7,0,0,0,232,176a24.2,24.2,0,0,0,4.664-.472c.5-.1.976-.288,1.472-.424a24.691,24.691,0,0,0,2.888-.9c.56-.224,1.064-.528,1.6-.8a23.172,23.172,0,0,0,2.36-1.288c.528-.344,1-.736,1.5-1.12s1.04-.7,1.5-1.12c.152.136.3.272.464.4.32.272.7.448,1.032.7a24.733,24.733,0,0,0,2.328,1.576c.608.36,1.216.7,1.856,1.008a24.358,24.358,0,0,0,2.72,1.08c.632.216,1.256.432,1.9.592a24.682,24.682,0,0,0,2.984.488c.672.08,1.328.184,2.008.2.24.008.464.072.712.072a22.422,22.422,0,0,0,2.336-.24c.544-.048,1.088,0,1.64-.088.184-.032.352-.1.536-.128.36-.072.7-.176,1.056-.264a21.788,21.788,0,0,0,2.976-.928c.528-.2,1.04-.416,1.544-.656.56-.272,1.1-.576,1.64-.888a23.957,23.957,0,0,0,11.68-15.664A7.787,7.787,0,0,1,288,160v28.688L276.688,200Zm208,6.568a12.518,12.518,0,0,1-4.36,9.5L279.752,253.68a20.516,20.516,0,0,0-7.064,17.608l13.976,139.768a4.492,4.492,0,0,1-4.48,4.944H173.744a4.5,4.5,0,0,1-4.48-4.928l13.984-146.88a8.037,8.037,0,0,0-1.632-5.656L159.2,229.544,154.92,216H276.688A16.087,16.087,0,0,0,288,211.312L299.312,200A15.891,15.891,0,0,0,304,188.688V160a23.967,23.967,0,0,0-16-22.528V112.008a39.75,39.75,0,0,1,36.512,25.36l3.008,7.56a4.582,4.582,0,0,1,.48,2.016ZM360,200H344V152h16Zm64-80V280a8.008,8.008,0,0,1-8,8H384a8.008,8.008,0,0,1-8-8V72a8.008,8.008,0,0,1,8-8h32a8.008,8.008,0,0,1,8,8Zm40,96a8.008,8.008,0,0,1-8,8H440V128h16a8.008,8.008,0,0,1,8,8Z" fill="red"/>
    </g>
  </g>
</svg>
